<?xml version="1.0" encoding="iso-8859-1"?>
<!-- Generator: Adobe Illustrator 19.0.0, SVG Export Plug-In . SVG Version: 6.00 Build 0)  -->
<svg version="1.1" id="Layer_1" xmlns="http://www.w3.org/2000/svg" xmlns:xlink="http://www.w3.org/1999/xlink" x="0px" y="0px"
	 viewBox="0 0 512 512" style="enable-background:new 0 0 512 512;" xml:space="preserve">
<path style="fill:#C17C3E;" d="M176.552,229.517v44.138c0,15.007,11.476,26.483,26.483,26.483l0,0
	c-7.062,37.076-8.828,112.11-8.828,149.186c0,33.545,26.483,62.676,60.028,62.676c0.883,0,2.648,0,3.531,0
	c33.545-0.883,60.028-29.131,60.028-62.676c0-36.193-1.766-111.228-8.828-149.186l0,0c15.007,0,26.483-11.476,26.483-26.483v-44.138
	H176.552z"/>
<path style="fill:#9E5A23;" d="M167.724,150.069v79.448H256h88.276v-79.448H167.724z"/>
<path style="fill:#ECE8D8;" d="M317.793,0c9.71,0,17.655,7.945,17.655,17.655v132.414H176.552V17.655
	c0-9.71,7.945-17.655,17.655-17.655H317.793z"/>
<path style="fill:#9E5A23;" d="M282.483,432.552c0-15.007-11.476-26.483-26.483-26.483s-26.483,11.476-26.483,26.483
	s11.476,26.483,26.483,26.483S282.483,447.559,282.483,432.552"/>
<g>
	<path style="fill:#C9C3A7;" d="M291.31,97.103c5.297,0,8.828-3.531,8.828-8.828V0h-17.655v88.276
		C282.483,93.572,286.014,97.103,291.31,97.103"/>
	<path style="fill:#C9C3A7;" d="M256,123.586c5.297,0,8.828-3.531,8.828-8.828V0h-17.655v114.759
		C247.172,120.055,250.703,123.586,256,123.586"/>
	<path style="fill:#C9C3A7;" d="M220.69,97.103c5.297,0,8.828-3.531,8.828-8.828V0h-17.655v88.276
		C211.862,93.572,215.393,97.103,220.69,97.103"/>
</g>
<path style="fill:#9E5A23;" d="M238.345,264.828c0-5.297-3.531-8.828-8.828-8.828h-52.966v17.655h52.966
	C234.814,273.655,238.345,270.124,238.345,264.828"/>
<g>
</g>
<g>
</g>
<g>
</g>
<g>
</g>
<g>
</g>
<g>
</g>
<g>
</g>
<g>
</g>
<g>
</g>
<g>
</g>
<g>
</g>
<g>
</g>
<g>
</g>
<g>
</g>
<g>
</g>
</svg>
